<?xml version="1.0" encoding="UTF-8" standalone="no"?>
<svg
   xmlns:dc="http://purl.org/dc/elements/1.1/"
   xmlns:cc="http://creativecommons.org/ns#"
   xmlns:rdf="http://www.w3.org/1999/02/22-rdf-syntax-ns#"
   xmlns:svg="http://www.w3.org/2000/svg"
   xmlns="http://www.w3.org/2000/svg"
   xmlns:sodipodi="http://sodipodi.sourceforge.net/DTD/sodipodi-0.dtd"
   xmlns:inkscape="http://www.inkscape.org/namespaces/inkscape"
   width="14"
   height="14"
   viewBox="0 0 14 14"
   preserveAspectRatio="xMinYMin"
   id="svg2"
   version="1.1"
   inkscape:version="0.48.4 r9939"
   sodipodi:docname="search-icon.svg">
  <metadata
     id="metadata10">
    <rdf:RDF>
      <cc:Work
         rdf:about="">
        <dc:format>image/svg+xml</dc:format>
        <dc:type
           rdf:resource="http://purl.org/dc/dcmitype/StillImage" />
      </cc:Work>
    </rdf:RDF>
  </metadata>
  <defs
     id="defs8" />
  <sodipodi:namedview
     pagecolor="#ffffff"
     bordercolor="#666666"
     borderopacity="1"
     objecttolerance="10"
     gridtolerance="10"
     guidetolerance="10"
     inkscape:pageopacity="0"
     inkscape:pageshadow="2"
     inkscape:window-width="1731"
     inkscape:window-height="985"
     id="namedview6"
     showgrid="false"
     inkscape:zoom="16.857143"
     inkscape:cx="7"
     inkscape:cy="4.6271186"
     inkscape:window-x="10"
     inkscape:window-y="24"
     inkscape:window-maximized="0"
     inkscape:current-layer="svg2" />
  <path
     d="M 9.9999997,8.8000001 H 9.3600001 l -0.24,-0.24 C 9.9199996,7.68 10.4,6.4800001 10.4,5.2000001 10.4,2.3200001 8.0800001,0 5.2000001,0 2.3200001,0 0,2.3200001 0,5.2000001 0,8.0800001 2.3200001,10.4 5.2000001,10.4 c 1.28,0 2.4799999,-0.4800004 3.36,-1.2799999 l 0.24,0.24 V 9.9999997 L 12.800001,14 14,12.800001 9.9999997,8.8000001 z m -4.7999996,0 C 3.2,8.8000001 1.6,7.2 1.6,5.2000001 1.6,3.2 3.2,1.6 5.2000001,1.6 c 1.9999999,0 3.6,1.6 3.6,3.6000001 0,1.9999999 -1.6000001,3.6 -3.6,3.6 z"
     id="path4"
     inkscape:connector-curvature="0"
     style="fill:#525152;fill-rule:evenodd" />
</svg>
