<svg xmlns="http://www.w3.org/2000/svg" xmlns:xlink="http://www.w3.org/1999/xlink" width="181" height="92" viewBox="0 0 181 92">
    <defs>
        <path id="a" d="M.603.19H38.26v35.094H.603z"/>
    </defs>
    <g fill="none" fill-rule="evenodd">
        <path fill="#35ABF4" d="M111.179 4.348l.09.256c4.942 18.602-13.007 30.845-25.666 35.133a50.586 50.586 0 0 0 7.456-1.27c16.572-4.099 28.01-15.482 25.55-25.422-.905-3.67-3.585-6.627-7.43-8.697zM84.155 2.464c-16.573 4.098-28.01 15.481-25.553 25.423.781 3.151 2.865 5.776 5.873 7.766-.656-1.454-.942-3.029-.944-4.543-.02-10.229 12.071-23.638 25.412-29.59a51.345 51.345 0 0 0-4.788.944z"/>
        <g transform="translate(73 .81)">
            <mask id="b" fill="#fff">
                <use xlink:href="#a"/>
            </mask>
            <path fill="#35ABF4" d="M3.705 23.273l1.2-3.045C27.214 13.105 27.2 3.872 27.197 3.185c-.003-1.475-.747-2.73-2.523-2.968A35.337 35.337 0 0 0 23.592.19c-.155.01-.315.027-.48.05C16.818 1.143 7.106 10.33 3.68 16.966.492 23.144.476 27.538.67 29.29c.601 5.427 5.93 6.632 10.787 5.715 5.325-1.013 30.26-12.176 26.4-31.637a24.547 24.547 0 0 0-2.996-1.295c.013.149.03.295.03.453.013 6.966-10.928 15.672-29.804 20.4l-1.382.347z" mask="url(#b)"/>
        </g>
        <g fill="#525152">
            <path d="M0 50.028h25.652v5.88H9.531v3.245h14.973v5.88H9.531v3.246h16.121v5.88H0zM31.197 50.028h9.531V67.67h14.77v6.489h-24.3zM59.994 50.028h9.531v14.6c0 3.11 1.791 4.09 4.901 4.09s4.901-.98 4.901-4.09v-14.6h9.531V65c0 7.672-4.63 10.004-14.432 10.004-9.8 0-14.432-2.332-14.432-10.004V50.028zM126.477 64.764c-.608 3.177-1.69 5.745-4.056 7.503-2.332 1.758-5.982 2.737-11.795 2.737-5.78 0-16.494-.405-16.494-12.91 0-12.506 10.714-12.91 16.494-12.91 5.746 0 14.6.742 15.85 10.308H115.73c-.271-1.725-1.42-4.226-5.104-4.226-3.887 0-6.354 1.927-6.354 6.827 0 4.901 2.399 6.828 5.88 6.828 3.009 0 4.8-1.25 5.578-4.157h10.747zM132.359 74.16h9.531V50.028h-9.531zM158.588 68.076h5.475c4.36 0 6.118-2.163 6.118-5.982 0-3.82-1.758-5.982-6.118-5.982h-5.475v11.964zm-9.531-18.048h18.554c8.18 0 12.506 3.177 12.506 12.066 0 8.483-4.293 12.066-12.302 12.066h-18.758V50.028zM11.926 83.6h-1.632v-.369c0-.752-.32-1.377-1.153-1.377-.896 0-1.105.721-1.105 1.473 0 .88.08 1.184.93 1.52l1.248.497c1.44.544 1.712 1.456 1.712 3.121 0 1.921-.704 3.345-2.817 3.345-1.585 0-2.785-1.168-2.785-2.705v-.609h1.633v.513c0 .592.32 1.168 1.152 1.168 1.105 0 1.185-.656 1.185-1.696 0-1.217-.144-1.408-.945-1.729l-1.169-.48c-1.408-.576-1.776-1.505-1.776-2.929 0-1.728.928-3.12 2.801-3.12 1.633 0 2.721 1.312 2.721 2.575v.801zM22.1 89.025c0 .785.514 1.152 1.105 1.152.593 0 1.105-.367 1.105-1.152v-6.018c0-.785-.512-1.153-1.105-1.153-.591 0-1.104.368-1.104 1.153v6.018zm-1.631-6.018c0-1.857 1.408-2.785 2.736-2.785 1.329 0 2.738.928 2.738 2.785v6.018c0 1.857-1.41 2.785-2.738 2.785s-2.736-.928-2.736-2.785v-6.018zM34.804 80.318h1.633v9.764h3.233v1.632h-4.866zM53.43 89.154a2.636 2.636 0 0 1-2.64 2.656 2.636 2.636 0 0 1-2.642-2.656v-8.836h1.633v8.676c0 .8.432 1.183 1.008 1.183.577 0 1.01-.383 1.01-1.183v-8.676h1.631v8.836zM63.46 81.854h-1.889v-1.536h5.41v1.536h-1.888v9.86H63.46zM75.172 91.714h1.633V80.318h-1.633zM87.349 89.025c0 .785.512 1.152 1.104 1.152.592 0 1.104-.367 1.104-1.152v-6.018c0-.785-.512-1.153-1.104-1.153-.592 0-1.104.368-1.104 1.153v6.018zm-1.633-6.018c0-1.857 1.409-2.785 2.737-2.785 1.329 0 2.737.928 2.737 2.785v6.018c0 1.857-1.408 2.785-2.737 2.785-1.328 0-2.737-.928-2.737-2.785v-6.018zM99.987 80.318h1.57l2.464 6.866h.032v-6.866h1.632v11.396h-1.536l-2.497-6.85h-.032v6.85h-1.633zM119.861 83.6h-1.632v-.369c0-.752-.32-1.377-1.153-1.377-.896 0-1.105.721-1.105 1.473 0 .88.08 1.184.93 1.52l1.248.497c1.44.544 1.712 1.456 1.712 3.121 0 1.921-.704 3.345-2.817 3.345-1.585 0-2.785-1.168-2.785-2.705v-.609h1.633v.513c0 .592.32 1.168 1.152 1.168 1.105 0 1.185-.656 1.185-1.696 0-1.217-.144-1.408-.945-1.729l-1.168-.48c-1.409-.576-1.777-1.505-1.777-2.929 0-1.728.928-3.12 2.801-3.12 1.633 0 2.721 1.312 2.721 2.575v.801zM138.947 91.714h1.633V80.318h-1.633zM149.523 80.318h1.569l2.464 6.866h.032v-6.866h1.632v11.396h-1.535l-2.498-6.85h-.032v6.85h-1.632zM169.3 89.17c0 1.407-1.136 2.64-2.592 2.64-1.25 0-2.69-.608-2.69-2.689v-6.273c0-1.49 1.073-2.625 2.658-2.625 1.504 0 2.625 1.134 2.625 2.72v.64h-1.633v-.545c0-.64-.384-1.184-1.008-1.184-.817 0-1.008.56-1.008 1.33v5.825c0 .656.255 1.168.992 1.168.448 0 1.024-.256 1.024-1.153v-.559h1.633v.704zM170.595 91.714h1.633v-1.633h-1.633z"/>
        </g>
    </g>
</svg>
